<?xml version="1.0" encoding="utf-8"?>
<!-- Generator: Adobe Illustrator 25.3.1, SVG Export Plug-In . SVG Version: 6.00 Build 0)  -->
<svg version="1.1" id="Шар_1" xmlns="http://www.w3.org/2000/svg" xmlns:xlink="http://www.w3.org/1999/xlink" x="0px" y="0px"
	 viewBox="0 0 20 20" style="enable-background:new 0 0 20 20;" xml:space="preserve">
<style type="text/css">
	.st0{fill:#FFFFFF;}
</style>
<path class="st0" d="M4.8,15h2.9c-0.7-0.5-1.2-1.2-1.6-2H5c-1.7,0-3-1.3-3-3s1.3-3,3-3h3c1.7,0,3,1.4,3,3c0,0.3-0.1,0.7-0.2,1h2.1
	c0-0.3,0.1-0.6,0.1-0.8V9.8C13,7.2,10.8,5,8.2,5H4.8C2.2,5,0,7.2,0,9.8v0.3C0,12.8,2.2,15,4.8,15"/>
<path class="st0" d="M15.2,5h-2.9c0.7,0.5,1.2,1.2,1.6,2H15c1.7,0,3,1.3,3,3s-1.3,3-3,3h-3c-1.7,0-3-1.4-3-3c0-0.3,0.1-0.7,0.2-1
	H7.1C7,9.3,7,9.6,7,9.8v0.3c0,2.7,2.2,4.8,4.8,4.8h3.3c2.7,0,4.8-2.2,4.8-4.8V9.8C20,7.2,17.8,5,15.2,5"/>
</svg>
