<?xml version="1.0" encoding="utf-8"?>
<!-- Generator: Adobe Illustrator 25.3.1, SVG Export Plug-In . SVG Version: 6.00 Build 0)  -->
<svg version="1.1" id="Шар_1" xmlns="http://www.w3.org/2000/svg" xmlns:xlink="http://www.w3.org/1999/xlink" x="0px" y="0px"
	 viewBox="0 0 20 20" style="enable-background:new 0 0 20 20;" xml:space="preserve">
<style type="text/css">
	.st0{fill:#FFFFFF;}
</style>
<path class="st0" d="M8.9,1c2.4,0,4.2,0.3,5.4,1c1.3,0.7,1.9,1.9,1.9,3.6c0,1-0.3,1.9-0.7,2.6c-0.5,0.7-1.2,1.2-2,1.3
	c0.6,0.1,1.1,0.4,1.6,0.7c0.4,0.3,0.8,0.8,1.1,1.3c0.3,0.7,0.5,1.5,0.4,2.3c0.1,1.5-0.6,2.9-1.7,3.8c-1.4,1-3.2,1.5-4.9,1.4H3.3V1
	H8.9z M9.3,8.1c1.1,0,1.9-0.1,2.3-0.5c0.5-0.3,0.7-0.9,0.7-1.5c0-0.7-0.3-1.2-0.8-1.5s-1.3-0.5-2.4-0.5h-2v4H9.3z M7.1,11.1V16h2.5
	c1.1,0,2-0.3,2.4-0.7c0.5-0.5,0.7-1,0.7-1.8c0-0.6-0.2-1.2-0.7-1.6c-0.5-0.4-1.3-0.6-2.5-0.6H7L7.1,11.1z"/>
</svg>
