<?xml version="1.0" encoding="utf-8"?>
<!-- Generator: Adobe Illustrator 25.3.1, SVG Export Plug-In . SVG Version: 6.00 Build 0)  -->
<svg version="1.1" id="Шар_1" xmlns="http://www.w3.org/2000/svg" xmlns:xlink="http://www.w3.org/1999/xlink" x="0px" y="0px"
	 viewBox="0 0 20 20" style="enable-background:new 0 0 20 20;" xml:space="preserve">
<style type="text/css">
	.st0{fill:#FFFFFF;}
</style>
<path class="st0" d="M5,1C3.9,1,3,1.9,3,3v14c0,1.1,0.9,2,2,2h10c1.1,0,2-0.9,2-2V3c0-1.1-0.9-2-2-2H5z M5,4h5v1H5V4z M5,6h5v1H5V6z
	 M5,8h5v1H5V8z M15,15H5v-1h10V15z M15,13H5v-1h10V13z M15,11H5v-1h10V11z M15,9h-4V4h4V9z"/>
</svg>
