<svg id="Шар_1" data-name="Шар 1" xmlns="http://www.w3.org/2000/svg" viewBox="0 0 61.5 25.47"><path d="M17.62,62.13,26,36.65h3.81L21.4,62.13Z" transform="translate(-17.62 -36.65)"/><path d="M30.74,60.59V45.13h4.2V60.59Zm4.2-8.51L33.3,51A8.19,8.19,0,0,1,35,46.46a4.87,4.87,0,0,1,4-1.65,5.36,5.36,0,0,1,2,.37,4.61,4.61,0,0,1,1.61,1.2l-2.62,3a2.08,2.08,0,0,0-.85-.59A3.31,3.31,0,0,0,38,48.65a3,3,0,0,0-2.2.84A3.49,3.49,0,0,0,34.94,52.08Z" transform="translate(-17.62 -36.65)"/><path d="M46.17,42.64a2.27,2.27,0,0,1-1.7-.69,2.35,2.35,0,0,1-.67-1.71,2.37,2.37,0,0,1,.67-1.7,2.43,2.43,0,0,1,3.41,0,2.4,2.4,0,0,1,.66,1.7A2.38,2.38,0,0,1,47.88,42,2.26,2.26,0,0,1,46.17,42.64ZM44,60.59V45.13h4.26V60.59Z" transform="translate(-17.62 -36.65)"/><path d="M50.65,48.81V45.13H62.07v3.68Zm3.61,11.78V38.7h4.2V60.59Z" transform="translate(-17.62 -36.65)"/><path d="M71.83,60.94a8.85,8.85,0,0,1-4.34-1,8,8,0,0,1-3-2.88,8,8,0,0,1-1.09-4.16,7.93,7.93,0,0,1,1.08-4.13,7.76,7.76,0,0,1,2.92-2.88,8.23,8.23,0,0,1,4.16-1.06,7.73,7.73,0,0,1,3.91,1,7,7,0,0,1,2.69,2.76,8.19,8.19,0,0,1,1,4,8,8,0,0,1,0,.84,5.09,5.09,0,0,1-.16,1l-13,0V51.21l11.07,0-1.73,1.31a5.55,5.55,0,0,0-.48-2.3,3.24,3.24,0,0,0-1.24-1.41,3.83,3.83,0,0,0-2-.48,4.12,4.12,0,0,0-2.17.55,3.58,3.58,0,0,0-1.43,1.55,6,6,0,0,0,0,4.83,3.68,3.68,0,0,0,1.52,1.58,4.67,4.67,0,0,0,2.31.55A5.63,5.63,0,0,0,73.94,57a4.2,4.2,0,0,0,1.67-1.21l2.49,2.49a7.63,7.63,0,0,1-2.78,2A8.9,8.9,0,0,1,71.83,60.94Z" transform="translate(-17.62 -36.65)"/></svg>