<?xml version="1.0" encoding="utf-8"?>
<!-- Generator: Adobe Illustrator 25.3.1, SVG Export Plug-In . SVG Version: 6.00 Build 0)  -->
<svg version="1.1" id="Шар_1" xmlns="http://www.w3.org/2000/svg" xmlns:xlink="http://www.w3.org/1999/xlink" x="0px" y="0px"
	 viewBox="0 0 20 20" style="enable-background:new 0 0 20 20;" xml:space="preserve">
<style type="text/css">
	.st0{fill:#FFFFFF;}
</style>
<path class="st0" d="M19,15.9v1.3c0,0.2-0.1,0.4-0.2,0.6c-0.2,0.2-0.4,0.2-0.6,0.2h-6.8v-2.9c0.6-0.1,1.2-0.4,1.7-0.7
	c0.5-0.4,1-0.9,1.4-1.4c0.4-0.6,0.7-1.2,0.9-1.9c0.2-0.7,0.3-1.5,0.3-2.3c0-0.9-0.1-1.7-0.5-2.5C15,5.7,14.6,5,14.1,4.5
	c-0.5-0.5-1.2-0.8-1.9-1.1c-1.4-0.5-3-0.5-4.4,0C6.4,3.9,5.2,5,4.7,6.3C4.3,7.1,4.2,8,4.2,8.8c0,0.8,0.1,1.5,0.3,2.3
	c0.2,0.7,0.5,1.3,0.9,1.9c0.4,0.5,0.9,1,1.4,1.4C7.4,14.7,8,15,8.6,15.1V18H1.9c-0.2,0-0.5-0.1-0.6-0.2C1.1,17.6,1,17.4,1,17.2v-1.3
	h4.8l1,0.1c-0.7-0.2-1.4-0.6-2-1.1c-0.6-0.5-1.1-1-1.6-1.6c-0.4-0.6-0.8-1.4-1-2.1c-0.3-0.8-0.4-1.6-0.4-2.5c0-1.1,0.2-2.2,0.6-3.2
	c0.4-0.9,0.9-1.7,1.6-2.4c0.8-0.7,1.7-1.2,2.7-1.6C7.8,1.2,8.9,1,10,1c1.1,0,2.2,0.2,3.2,0.6c1,0.4,1.9,0.9,2.6,1.6
	c0.8,0.7,1.4,1.5,1.8,2.5c0.4,1,0.7,2.1,0.6,3.2c0,0.8-0.1,1.7-0.3,2.5c-0.2,0.7-0.6,1.5-1,2.1c-0.5,0.6-1,1.2-1.7,1.6
	c-0.6,0.5-1.3,0.8-2,1l1-0.1h1L19,15.9z"/>
</svg>
